<svg xmlns="http://www.w3.org/2000/svg" width="86.322" height="15.022" viewBox="0 0 86.322 15.022"><g transform="translate(-1104.467 -1140.182)"><text transform="translate(1165.789 1151.204)" fill="#333" font-size="14" font-family="DINCondensed-Bold, DIN Condensed" font-weight="700" letter-spacing="0.01em"><tspan x="0" y="0">14,7K</tspan></text><text transform="translate(1121.789 1151.204)" fill="#333" font-size="14" font-family="DINCondensed-Bold, DIN Condensed" font-weight="700" letter-spacing="0.01em"><tspan x="0" y="0">60</tspan></text><g transform="translate(1148.513 1140.182)"><path d="M1.157,6.664,6.371,11.58a.469.469,0,0,0,.657,0l5.215-4.916A3.889,3.889,0,0,0,13.379,3.9a3.874,3.874,0,0,0-1.121-2.764A3.383,3.383,0,0,0,9.808.149,4.455,4.455,0,0,0,6.745,1.434c-.015,0-.015.015-.03.015s-.015,0-.03-.015A4.431,4.431,0,0,0,3.936,0,3.949,3.949,0,0,0,1.157,1.136,3.941,3.941,0,0,0,1.157,6.664Z" transform="translate(0)" fill="#333"/></g><path d="M10.137,0H2.314A2.347,2.347,0,0,0,0,2.355V8.048a2.383,2.383,0,0,0,2.314,2.4H5.57a15.988,15.988,0,0,0,2.7,2.539c.246.143.553-.143.553-.43V10.444h1.393a2.376,2.376,0,0,0,2.273-2.4V2.355A2.369,2.369,0,0,0,10.137,0Z" transform="translate(1104.467 1140.182)" fill="#333"/></g></svg>