<svg xmlns="http://www.w3.org/2000/svg" width="229.092" height="18.339" viewBox="0 0 229.092 18.339">
  <g id="Group_135" data-name="Group 135" transform="translate(-914.271 -4855)">
    <g id="Linkedin-icon" transform="translate(-7 36.421)">
      <path id="Path_739" data-name="Path 739" d="M1.837,0c.124.02.249.031.37.059A1.641,1.641,0,0,1,3.1,2.716a1.675,1.675,0,0,1-1.021.553A2.083,2.083,0,0,1,.841,3.132,1.6,1.6,0,0,1-.09,1.54,1.608,1.608,0,0,1,1.314.035C1.4.02,1.485.012,1.571,0Z" transform="translate(1079.938 4820.579)" fill="#fff"/>
      <path id="Path_740" data-name="Path 740" d="M443.2,388.369v-9.538h3.161v1.325l.013.006c.012-.016.023-.032.034-.049a3.468,3.468,0,0,1,.931-.977,3.043,3.043,0,0,1,1.376-.5,4.058,4.058,0,0,1,1.781.164,3.176,3.176,0,0,1,1.961,1.822,4.792,4.792,0,0,1,.379,1.512c.027.293.037.589.038.883q.005,2.64,0,5.278v.078H449.7V388.3q0-2.541,0-5.082a3.105,3.105,0,0,0-.206-1.194,1.37,1.37,0,0,0-1.273-.905,1.712,1.712,0,0,0-1.722,1.079,1.9,1.9,0,0,0-.136.8q0,2.65,0,5.3v.079Z" transform="translate(641.771 4446.354)" fill="#fff"/>
      <path id="Path_741" data-name="Path 741" d="M16.6,398.2h3.166v9.54H16.6Z" transform="translate(1063.438 4426.983)" fill="#fff"/>
    </g>
    <path id="twitter-icon" d="M10.566,0h.673c.012.009.024.021.04.021a3.223,3.223,0,0,1,1.887.923.212.212,0,0,0,.171.043,6.109,6.109,0,0,0,1.78-.667c.04-.021.083-.04.15-.07a3.365,3.365,0,0,1-1.324,1.728A5.929,5.929,0,0,0,15.7,1.514a6.475,6.475,0,0,1-1.483,1.566.244.244,0,0,0-.107.214,13.107,13.107,0,0,1-.064,1.342,9.326,9.326,0,0,1-2.571,5.406,8.668,8.668,0,0,1-6.063,2.672,8.949,8.949,0,0,1-4.217-.819C.819,11.723.464,11.518.1,11.329c.006-.012.009-.028.015-.04a6.668,6.668,0,0,0,2.458-.211,6.515,6.515,0,0,0,2.22-1.125,3.188,3.188,0,0,1-2.969-2.22,3.353,3.353,0,0,0,1.41-.073A3.2,3.2,0,0,1,1.381,6.516a3.1,3.1,0,0,1-.7-2.039,3.255,3.255,0,0,0,1.41.388A3.22,3.22,0,0,1,1.143.608a9.182,9.182,0,0,0,6.6,3.339c-.021-.226-.052-.428-.061-.63A3.194,3.194,0,0,1,9.9.156C10.117.092,10.343.052,10.566,0Z" transform="translate(961.752 4858)" fill="#fff"/>
    <path id="facebook-icon" d="M7.629,8.133h2.905c-.038.387-.072.754-.109,1.124-.063.636-.139,1.267-.189,1.9-.017.177-.063.24-.248.236-.7-.013-1.4,0-2.105,0H7.633v9.161H3.8V11.4H2V8.137H3.8c0-.131,0-.236,0-.337.025-.863-.008-1.73.088-2.581a3.264,3.264,0,0,1,3.1-2.968c1.149-.076,2.311-.013,3.482-.013v3.12H8.492a.752.752,0,0,0-.855.779C7.608,6.782,7.629,7.438,7.629,8.133Z" transform="translate(912.271 4852.786)" fill="#fff"/>
    <path id="instagram-icon" d="M-2660.061,16.67h-7.209a4.736,4.736,0,0,1-4.73-4.73V4.73A4.736,4.736,0,0,1-2667.27,0h7.209a4.736,4.736,0,0,1,4.73,4.73v7.209A4.736,4.736,0,0,1-2660.061,16.67ZM-2663.78,4.72a4,4,0,0,0-4,4,4.005,4.005,0,0,0,4,4,4,4,0,0,0,4-4A4,4,0,0,0-2663.78,4.72Zm5-2a1,1,0,0,0-1,1,1,1,0,0,0,1,1,1,1,0,0,0,1-1A1,1,0,0,0-2658.78,2.72Z" transform="translate(3688.78 4856)" fill="#fff"/>
    <path id="Dribbble-icon" d="M19.146,33.754a8.3,8.3,0,0,1-4.815-1.53,14.3,14.3,0,0,1,.882-1.53A12.086,12.086,0,0,1,16.5,29.064a8.547,8.547,0,0,1,3.945-2.449A34.984,34.984,0,0,1,22.135,33.2,8.3,8.3,0,0,1,19.146,33.754Zm4.341-1.217h0a27.655,27.655,0,0,0-1.618-6.218,11.577,11.577,0,0,1,1.731-.135,9.577,9.577,0,0,1,2.2.248,7.933,7.933,0,0,1,1.542.532,8.3,8.3,0,0,1-1.352,3.218,8.384,8.384,0,0,1-2.5,2.355Zm-10.28-1.268h0a8.35,8.35,0,0,1-1.757-2.636,8.289,8.289,0,0,1-.644-3.218c0-.083,0-.167,0-.251.457.044.952.066,1.472.066a22.328,22.328,0,0,0,2.817-.19,30.835,30.835,0,0,0,3.8-.746c.148-.039.3-.08.445-.123.223.421.425.833.6,1.226l-.121.034A10.985,10.985,0,0,0,13.207,31.269Zm14.268-5.43h0a10.77,10.77,0,0,0-1.847-.6,11.2,11.2,0,0,0-2.5-.281,11.708,11.708,0,0,0-1.776.137c-.126-.281-.26-.565-.4-.844-.089-.181-.181-.364-.273-.543a11.979,11.979,0,0,0,3.059-1.781,10.2,10.2,0,0,0,1.8-1.868,8.307,8.307,0,0,1,1.947,5.356c0,.141,0,.284-.011.425Zm-15.15-1.83h0c-.479,0-.948-.015-1.393-.045a8.3,8.3,0,0,1,1.488-3.481,8.38,8.38,0,0,1,2.822-2.44,46.285,46.285,0,0,1,3.524,5.087l-.254.07a24.579,24.579,0,0,1-3.433.647A24.041,24.041,0,0,1,12.325,24.008Zm7.793-1.359h0c-.545-.976-1.152-1.959-1.8-2.919-.527-.777-1.086-1.543-1.662-2.277A8.33,8.33,0,0,1,24.7,19.188a12.157,12.157,0,0,1-1.753,1.75,11.838,11.838,0,0,1-2.825,1.71Z" transform="translate(1115.877 4838.926)" fill="#fff"/>
  </g>
</svg>
